<?xml version="1.0" standalone="no"?>
<!DOCTYPE svg PUBLIC "-//W3C//DTD SVG 20010904//EN"
 "http://www.w3.org/TR/2001/REC-SVG-20010904/DTD/svg10.dtd">
<svg version="1.0" xmlns="http://www.w3.org/2000/svg"
 width="512.000000pt" height="512.000000pt" viewBox="0 0 512.000000 512.000000"
 preserveAspectRatio="xMidYMid meet">
<metadata>
Created by potrace 1.11, written by Peter Selinger 2001-2013
</metadata>
<g transform="translate(0.000000,512.000000) scale(0.100000,-0.100000)"
fill="#000000" stroke="none">
<path d="M835 5039 c-16 -4 -47 -22 -67 -39 -74 -61 -68 128 -66 -2440 l3
-2305 28 -48 c18 -31 42 -55 70 -70 l42 -22 1745 0 1745 0 42 23 c24 12 55 41
70 64 l28 42 3 2314 c1 1667 -1 2326 -9 2355 -14 52 -72 111 -124 126 -49 13
-3464 14 -3510 0z m3293 -931 l-3 -633 -1555 0 -1555 0 -3 620 c-1 341 0 626
3 633 3 9 325 12 1560 12 l1555 0 -2 -632z m-2718 -1065 c0 -10 -6 -26 -13
-35 -7 -9 -22 -44 -33 -77 -14 -44 -24 -61 -36 -61 -11 0 -18 7 -18 18 0 30
21 96 37 114 14 15 12 17 -19 20 -22 2 -34 9 -36 21 -3 15 5 17 57 17 52 0 61
-3 61 -17z m805 -7 c13 -19 14 -29 6 -45 -7 -13 -8 -22 -1 -26 16 -10 12 -57
-7 -77 -20 -22 -70 -23 -95 -1 -19 17 -25 68 -8 78 6 3 6 15 0 29 -22 58 71
95 105 42z m811 7 c19 -25 18 -123 -2 -151 -18 -26 -60 -29 -86 -5 -22 20 -23
43 -1 43 15 0 15 1 0 18 -38 42 -9 112 46 112 17 0 36 -8 43 -17z m799 -30 c0
-30 2 -33 32 -33 35 0 46 -10 37 -34 -4 -10 -18 -16 -38 -16 -28 0 -32 -3 -31
-27 0 -24 5 -29 35 -33 22 -3 35 -10 35 -20 0 -12 -18 -16 -92 -18 -88 -3 -93
-2 -93 18 0 16 6 20 33 20 32 0 33 2 29 30 -4 25 -9 30 -33 30 -24 0 -29 4
-29 25 0 21 5 25 30 25 26 0 30 4 30 28 0 35 8 44 35 40 15 -2 20 -10 20 -35z
m-2435 -583 c0 -33 4 -60 10 -60 6 0 10 -7 10 -15 0 -8 -4 -15 -10 -15 -5 0
-10 -9 -10 -21 0 -14 -5 -19 -17 -17 -10 2 -17 11 -17 21 1 13 -7 17 -37 17
-48 0 -50 13 -12 73 63 99 83 103 83 17z m838 43 c-2 -12 -14 -19 -33 -21 -39
-5 -58 -22 -23 -22 35 0 58 -25 58 -62 0 -41 -25 -68 -63 -68 -32 0 -67 24
-67 45 0 21 33 28 47 9 24 -33 56 1 33 36 -7 12 -13 12 -33 1 -32 -17 -49 -7
-42 25 17 80 11 74 71 74 47 0 55 -3 52 -17z m804 -9 c9 -20 9 -27 -1 -33 -9
-6 -10 -11 -2 -15 15 -10 13 -77 -3 -98 -8 -11 -26 -18 -44 -18 -42 0 -62 31
-62 95 0 66 20 95 66 95 27 0 37 -5 46 -26z m793 -21 c0 -30 2 -33 32 -33 35
0 46 -10 37 -34 -4 -10 -18 -16 -38 -16 -28 0 -32 -3 -31 -27 0 -23 -4 -28
-25 -28 -20 0 -26 6 -28 28 -3 23 -8 27 -33 27 -24 0 -29 4 -29 25 0 21 5 25
30 25 26 0 30 4 30 28 0 35 8 44 35 40 15 -2 20 -10 20 -35z m-2445 -619 c0
-86 -2 -95 -17 -92 -14 2 -19 15 -21 60 -3 50 -5 55 -22 51 -28 -8 -25 14 7
48 46 49 53 40 53 -67z m832 79 c27 -24 22 -59 -16 -101 l-34 -37 31 0 c22 0
33 -5 35 -17 3 -16 -5 -18 -62 -18 -57 0 -66 2 -66 18 0 10 18 36 40 57 41 40
52 75 25 75 -8 0 -15 -4 -15 -10 0 -5 -11 -10 -25 -10 -29 0 -32 16 -8 42 20
22 70 23 95 1z m810 0 c20 -18 24 -48 7 -59 -8 -4 -8 -9 0 -17 14 -14 14 -52
1 -78 -20 -37 -110 -14 -110 28 0 7 9 13 20 13 11 0 20 -4 20 -10 0 -5 9 -10
20 -10 13 0 20 7 20 20 0 13 -7 20 -20 20 -13 0 -20 7 -20 19 0 11 9 23 20 26
11 3 20 11 20 16 0 5 -9 9 -20 9 -11 0 -20 -4 -20 -10 0 -5 -9 -10 -20 -10
-24 0 -26 17 -3 42 20 22 61 23 85 1z m872 -72 c4 -5 3 -16 0 -25 -5 -13 -23
-16 -95 -16 -88 0 -89 0 -89 25 0 25 1 25 89 25 50 0 92 -4 95 -9z m-2090
-503 c10 -13 16 -43 16 -73 0 -65 -20 -95 -63 -95 -25 0 -36 7 -49 31 -38 66
-7 159 52 159 18 0 34 -8 44 -22z m1973 -30 l23 -21 23 21 c13 12 29 22 35 22
24 0 25 -31 2 -56 l-23 -24 22 -23 c13 -15 19 -30 15 -40 -8 -23 -23 -21 -51
5 l-23 21 -24 -23 c-26 -23 -56 -22 -56 3 0 8 9 22 20 32 26 23 25 40 -1 59
-13 9 -19 21 -16 30 9 22 27 20 54 -6z m-769 -121 c2 -11 -3 -17 -17 -17 -23
0 -35 15 -26 31 10 15 39 6 43 -14z m-1721 -409 c6 -7 21 -44 33 -83 13 -38
25 -76 28 -82 2 -8 -4 -13 -17 -13 -14 0 -25 9 -31 25 -7 18 -17 25 -35 25
-18 0 -28 -7 -35 -25 -10 -26 -50 -36 -50 -12 0 6 14 49 32 95 32 82 51 100
75 70z m200 -10 c13 -12 23 -27 23 -35 0 -18 -39 -17 -46 2 -8 20 -60 19 -68
-1 -26 -68 31 -141 66 -84 13 20 58 28 58 11 0 -4 -9 -20 -21 -35 -29 -37 -99
-37 -128 0 -39 50 -39 88 0 137 27 35 82 37 116 5z m660 0 c13 -12 23 -27 23
-35 0 -18 -35 -17 -50 2 -30 36 -70 9 -70 -47 0 -32 5 -41 26 -50 23 -11 29
-10 44 10 21 25 50 29 50 7 0 -29 -38 -55 -79 -55 -52 0 -81 35 -81 95 0 59
30 95 78 95 23 0 44 -8 59 -22z m173 2 c0 -17 -7 -20 -50 -20 -38 0 -50 -4
-50 -15 0 -11 12 -15 45 -15 38 0 45 -3 45 -20 0 -17 -7 -20 -46 -20 -41 0
-45 -2 -42 -22 2 -19 11 -24 51 -28 74 -8 61 -25 -20 -28 l-73 -3 0 89 c0 49
3 92 7 95 3 4 35 7 70 7 56 0 63 -2 63 -20z m1510 -30 c0 -16 -7 -20 -30 -20
-23 0 -30 4 -30 20 0 16 7 20 30 20 23 0 30 -4 30 -20z m-750 -20 c0 -25 -27
-32 -115 -28 -64 3 -70 5 -73 26 -3 21 -1 22 92 22 89 0 96 -1 96 -20z m818
-37 c-2 -12 -15 -20 -38 -23 -27 -4 -35 -10 -35 -25 0 -14 -8 -21 -27 -23 -24
-3 -28 0 -28 22 0 22 -4 26 -30 26 -23 0 -30 4 -30 20 0 19 7 20 96 20 86 0
95 -2 92 -17z m-820 -45 c-3 -22 -7 -23 -93 -23 -86 0 -90 1 -93 23 -3 21 -1
22 93 22 94 0 96 -1 93 -22z"/>
<path d="M2155 3020 c-4 -6 -3 -16 3 -22 6 -6 12 -6 17 2 4 6 3 16 -3 22 -6 6
-12 6 -17 -2z"/>
<path d="M2157 2953 c-15 -15 -6 -43 13 -43 11 0 20 6 20 14 0 17 -24 38 -33
29z"/>
<path d="M2971 3021 c-18 -12 -10 -55 12 -59 13 -3 17 3 17 27 0 33 -9 44 -29
32z"/>
<path d="M2960 2920 c0 -5 9 -10 20 -10 11 0 20 5 20 10 0 6 -9 10 -20 10 -11
0 -20 -4 -20 -10z"/>
<path d="M1336 2395 c-15 -23 -15 -25 1 -25 13 0 18 8 18 25 0 14 -1 25 -1 25
-1 0 -9 -11 -18 -25z"/>
<path d="M2965 2440 c-4 -6 5 -10 20 -10 15 0 24 4 20 10 -3 6 -12 10 -20 10
-8 0 -17 -4 -20 -10z"/>
<path d="M2964 2385 c-9 -21 3 -45 21 -45 10 0 15 10 15 30 0 32 -26 43 -36
15z"/>
<path d="M1740 1256 c0 -57 7 -70 29 -57 20 13 10 105 -11 109 -15 3 -18 -5
-18 -52z"/>
<path d="M1257 695 c-8 -20 -4 -29 11 -24 5 2 6 13 2 23 -6 19 -7 19 -13 1z"/>
</g>
</svg>
